<svg style="display: none">
<symbol id="icon-author" viewBox="0 0 30 30" fill="currentColor" xmlns="http://www.w3.org/2000/svg">
<path fill-rule="evenodd" clip-rule="evenodd" d="M12 2C6.48 2 2 6.48 2 12C2 17.52 6.48 22 12 22C17.52 22 22 17.52 22 12C22 6.48 17.52 2 12 2ZM7.07 18.28C7.5 17.38 10.12 16.5 12 16.5C13.88 16.5 16.51 17.38 16.93 18.28C15.57 19.36 13.86 20 12 20C10.14 20 8.43 19.36 7.07 18.28ZM12 14.5C13.46 14.5 16.93 15.09 18.36 16.83C19.38 15.49 20 13.82 20 12C20 7.59 16.41 4 12 4C7.59 4 4 7.59 4 12C4 13.82 4.62 15.49 5.64 16.83C7.07 15.09 10.54 14.5 12 14.5ZM12 6C10.06 6 8.5 7.56 8.5 9.5C8.5 11.44 10.06 13 12 13C13.94 13 15.5 11.44 15.5 9.5C15.5 7.56 13.94 6 12 6ZM10.5 9.5C10.5 10.33 11.17 11 12 11C12.83 11 13.5 10.33 13.5 9.5C13.5 8.67 12.83 8 12 8C11.17 8 10.5 8.67 10.5 9.5Z" fill="currentColor"/>
</symbol>
<symbol id="icon-best" fill="inherit" xmlns="http://www.w3.org/2000/svg" xmlns:xlink="http://www.w3.org/1999/xlink" 
	 viewBox="0 0 30 30" xml:space="preserve">
<g>
	<g>
		<g>
			<polygon points="266.24,143.36 245.76,81.92 226.427,143.36 163.84,143.36 214.467,178.217 195.133,237.732 245.76,204.8 
				296.387,237.732 277.053,178.217 327.68,143.36 			"/>
			<path d="M433.355,62.149l-3.275-0.1V20.48C430.08,9.169,420.911,0,409.6,0H81.92C70.609,0,61.44,9.169,61.44,20.48v41.56
				l-3.892,0.117C26.118,62.149,0.002,89.195,0.002,121.295v70.451c0,36.984,19.681,71.675,51.423,90.701l3.617,1.712l53.518,19.186
				c20.689,23.439,46.858,42.159,75.759,53.443v32.332h-14.725c-37.116,0-67.195,30.079-67.195,67.195v14.725
				c0,11.311,9.169,20.48,20.48,20.48h245.76c11.311,0,20.48-9.169,20.48-20.48v-14.725c0-37.116-30.079-67.195-67.195-67.195H307.2
				v-32.332c28.901-11.284,55.07-30.005,75.759-53.443l53.518-19.186l3.617-1.712c31.742-19.025,51.423-53.716,51.423-90.701
				v-70.451C491.518,89.195,465.402,62.149,433.355,62.149z M70.891,246.328c-18.473-11.825-29.929-32.626-29.929-54.582v-70.451
				c0-9.793,8.105-18.186,17.203-18.186l3.275-0.098v81.862c0,21.569,4.435,42.698,12.384,62.506L70.891,246.328z M347.527,450.56
				H143.993c2.622-11.724,13.085-20.48,25.602-20.48H204.8h81.92h35.205C334.442,430.08,344.906,438.836,347.527,450.56z
				 M266.24,367.408v21.712h-40.96v-21.807c5.036,0.644,10.109,1.062,15.211,1.231c0.074,0.003,0.148,0.007,0.222,0.009
				c1.68,0.053,3.362,0.087,5.047,0.087c1.563,0,3.123-0.025,4.682-0.071c1.414-0.039,2.83-0.105,4.246-0.18
				c0.027-0.002,0.054-0.002,0.081-0.004C258.587,368.182,262.411,367.865,266.24,367.408z M252.855,327.465
				c-0.242,0.013-0.483,0.025-0.725,0.037c-0.854,0.046-1.708,0.084-2.563,0.112c-1.271,0.038-2.541,0.066-3.807,0.066
				c-1.402,0-2.81-0.029-4.224-0.084c-0.051-0.002-0.101-0.005-0.152-0.007c-10.007-0.405-20.289-2.188-30.802-5.281
				c-0.866-0.255-1.732-0.446-2.595-0.585C149.915,303.436,102.4,245.622,102.4,184.873V40.96h286.72v143.913
				C389.12,256.059,323.876,323.22,252.855,327.465z M450.558,191.746c0,21.956-11.457,42.757-29.929,54.582l-2.932,1.051
				c7.948-19.808,12.384-40.937,12.384-62.506v-81.854l2.657,0.08c9.716,0.009,17.821,8.403,17.821,18.196V191.746z"/>
		</g>
	</g>
</g>
</symbol>
<symbol id="icon-new" viewBox="0 0 30 30" xmlns="http://www.w3.org/2000/svg" fill="inherit"><path d="M9.13 15l-.53-.77a1.85 1.85 0 0 0-.28-2.54 3.51 3.51 0 0 1-1.19-2c-1.56 2.23-.75 3.46 0 4.55l-.55.76A4.4 4.4 0 0 1 3 10.46S2.79 8.3 5.28 6.19c0 0 2.82-2.61 1.84-4.54L7.83 1a6.57 6.57 0 0 1 2.61 6.94 2.57 2.57 0 0 0 .56-.81l.87-.07c.07.12 1.84 2.93.89 5.3A4.72 4.72 0 0 1 9.13 15zm-2-6.95l.87.39a3 3 0 0 0 .92 2.48 2.64 2.64 0 0 1 1 2.8A3.241 3.241 0 0 0 11.8 12a4.87 4.87 0 0 0-.41-3.63 1.85 1.85 0 0 1-1.84.86l-.35-.68a5.31 5.31 0 0 0-.89-5.8C8.17 4.87 6 6.83 5.93 6.94 3.86 8.7 4 10.33 4 10.4a3.47 3.47 0 0 0 1.59 3.14C5 12.14 5 10.46 7.16 8.05h-.03z"/></symbol>
<symbol id="icon-melodrama" viewBox="0 0 30 30" fill="inherit" xmlns="http://www.w3.org/2000/svg">
<path fill-rule="evenodd" clip-rule="evenodd" d="M8.97866 6.1448C7.65671 5.5573 5.99601 5.8585 5.00161 7.14017L4.69226 7.53889C3.3632 9.2519 3.5551 11.6947 5.13534 13.1792L12 19.6278L18.8646 13.1792C20.4449 11.6947 20.6368 9.25189 19.3077 7.53889L18.9984 7.14017C17.8194 5.62065 15.704 5.47843 14.3251 6.56449L13.0876 4.99329C15.2841 3.26335 18.6771 3.46343 20.5785 5.91417L20.8879 6.31289C22.8493 8.84095 22.5661 12.4461 20.234 14.6369L13.2814 21.1681C13.2748 21.1743 13.2681 21.1806 13.2613 21.187C13.1598 21.2824 13.0374 21.3975 12.9198 21.4881C12.781 21.595 12.5726 21.7301 12.2888 21.7857C12.0981 21.8232 11.9019 21.8232 11.7111 21.7857C11.4274 21.7301 11.219 21.595 11.0802 21.4881C10.9626 21.3975 10.8402 21.2824 10.7386 21.1869C10.7318 21.1806 10.7252 21.1743 10.7186 21.1681L3.76598 14.6369C1.43387 12.4461 1.15066 8.84096 3.11209 6.3129L3.90217 6.9259L3.11209 6.3129L3.42144 5.91418C5.37666 3.39411 8.90893 3.25294 11.0977 5.1463L11.8206 5.7716L11.2286 6.52199L10.1929 7.83476C9.84628 8.27407 9.65376 8.52186 9.54364 8.71047C9.54221 8.71293 9.54081 8.71534 9.53945 8.7177C9.54156 8.71943 9.54373 8.72119 9.54594 8.72298C9.71577 8.8603 9.98364 9.02374 10.4635 9.31164L11.7159 10.0631C11.732 10.0727 11.748 10.0824 11.7641 10.092C12.1444 10.3201 12.5121 10.5406 12.789 10.7629C13.1003 11.0128 13.4207 11.3593 13.5375 11.8789C13.6543 12.3985 13.5131 12.8488 13.3388 13.2078C13.1837 13.5273 12.9458 13.884 12.6997 14.253C12.6894 14.2685 12.679 14.2841 12.6686 14.2997L11.8321 15.5545L10.168 14.4451L11.0045 13.1903C11.2936 12.7565 11.4517 12.5155 11.5397 12.3343C11.5408 12.332 11.5419 12.3296 11.543 12.3274C11.5411 12.3258 11.5391 12.3242 11.537 12.3226C11.38 12.1965 11.1339 12.0463 10.6869 11.7781L9.43447 11.0266C9.41756 11.0165 9.40066 11.0063 9.38379 10.9962C8.97374 10.7503 8.58098 10.5147 8.28843 10.2782C7.96172 10.014 7.62359 9.64333 7.52173 9.08738C7.41988 8.53144 7.60462 8.06495 7.81645 7.70211C8.00613 7.37721 8.28987 7.01771 8.5861 6.64237C8.59828 6.62693 8.61049 6.61147 8.6227 6.59598L8.97866 6.1448ZM9.45433 8.63835C9.45436 8.63835 9.45477 8.63886 9.4555 8.63988C9.45467 8.63885 9.45431 8.63834 9.45433 8.63835ZM9.48855 8.82024C9.48822 8.82144 9.48802 8.82207 9.488 8.82208L9.48855 8.82024Z" fill="inherit"/>
</symbol>
<symbol id="icon-horror" fill="inherit" xmlns="http://www.w3.org/2000/svg" xmlns:xlink="http://www.w3.org/1999/xlink" 
	 viewBox="0 0 30 30"  xml:space="preserve">
<style type="text/css">
</style>
<g>
	<path class="st0" d="M455.097,261.156c0.517-7.944,0.792-15.904,0.792-23.864c-0.032-55.303-12.817-110.928-44.627-153.914
		c-15.888-21.457-36.626-39.599-62.47-52.392c-21.296-10.547-46.174-17.19-74.318-19.639V0h-48.437v11.581
		c-23.372,2.708-44.376,9.133-62.879,18.652c-37.668,19.308-64.66,51.052-81.955,87.944
		c-17.335,36.949-25.271,79.175-25.286,120.981c0,7.354,0.29,14.685,0.779,21.998H41.661v45.249h20.98
		c9.944,55.036,27.376,103.315,55.564,139.731c11.012,14.191,23.828,26.402,38.266,36.423c5.71,4.187,20.58,12.204,24.972,14.102
		c18.115,8.535,46.679,15.355,74.512,15.34c27.833,0.008,52.647-4.785,74.621-13.941c7.597-3.273,22.006-11.008,24.972-13.06
		c24.713-16.074,44.464-38.913,59.432-67.231c16.366-30.92,27.462-68.281,34.606-111.364h20.754v-45.249H455.097z M430.02,261.156
		h-13.796v45.249h8.058c-9.577,55.246-26.064,98.66-50.187,128.498c-13.787,17.092-29.958,29.918-49.322,38.686
		c-19.351,8.736-42.016,13.431-68.818,13.439c-26.588-0.024-49.087-5.31-68.447-14.854c-28.976-14.329-51.374-38.501-68.495-71.054
		c-13.973-26.612-24.128-58.794-30.957-94.716h7.714v-45.249H81.709c-0.53-7.289-0.804-14.644-0.804-21.998
		C80.856,187.605,94.187,135.9,121.939,98.005c13.872-18.976,31.259-34.581,52.631-45.556c15.003-7.694,32.153-12.979,51.468-15.541
		v8.332h48.437v-8.898c24.438,2.376,45.455,8.235,63.23,17.028c33.248,16.512,56.2,42.752,71.312,74.997
		c15.081,32.172,21.91,70.302,21.893,108.924C430.909,245.244,430.578,253.212,430.02,261.156z"/>
	<path class="st0" d="M193.395,221.362c-30.823-4.735-61.383,6.724-64.001,26.266c-3.281,24.592,5.608,48.95,24.616,54.146
		c36.08,9.82,73.825-16.43,73.825-47.608C227.836,229.508,214.707,224.652,193.395,221.362z"/>
	<path class="st0" d="M320.689,221.362c-21.335,3.29-34.44,8.146-34.44,32.803c0,31.179,37.749,57.428,73.825,47.608
		c19.007-5.196,27.898-29.554,24.616-54.146C382.105,228.086,351.54,216.627,320.689,221.362z"/>
	<polygon class="st0" points="308.247,190.191 203.219,190.191 255.737,218.073 	"/>
	<path class="st0" d="M259.835,315.714c-6.805,0-12.304,5.504-12.304,12.3c0,6.789,5.499,12.308,12.304,12.308
		c6.789,0,12.308-5.519,12.308-12.308C272.143,321.218,266.623,315.714,259.835,315.714z"/>
	<path class="st0" d="M226.195,358.369c-6.319,0-11.488,5.14-11.488,11.492c0,6.352,5.169,11.476,11.488,11.476
		c6.344,0,11.488-5.123,11.488-11.476C237.683,363.509,232.539,358.369,226.195,358.369z"/>
	<path class="st0" d="M226.195,410.875c-6.319,0-11.488,5.132-11.488,11.492c0,6.344,5.169,11.476,11.488,11.476
		c6.344,0,11.488-5.132,11.488-11.476C237.683,416.007,232.539,410.875,226.195,410.875z"/>
	<path class="st0" d="M296.763,358.369c-6.344,0-11.492,5.14-11.492,11.492c0,6.352,5.148,11.476,11.492,11.476
		c6.34,0,11.484-5.123,11.484-11.476C308.247,363.509,303.103,358.369,296.763,358.369z"/>
	<path class="st0" d="M296.763,410.875c-6.344,0-11.492,5.132-11.492,11.492c0,6.344,5.148,11.476,11.492,11.476
		c6.34,0,11.484-5.132,11.484-11.476C308.247,416.007,303.103,410.875,296.763,410.875z"/>
	<path class="st0" d="M219.633,164.742c6.804,0,12.328-5.486,12.328-12.275c0-6.822-5.524-12.333-12.328-12.333
		c-6.789,0-12.288,5.512-12.288,12.333C207.345,159.256,212.844,164.742,219.633,164.742z"/>
	<path class="st0" d="M169.822,126.25c0,6.788,5.5,12.284,12.284,12.284c6.808,0,12.328-5.496,12.328-12.284
		c0-6.813-5.52-12.333-12.328-12.333C175.322,113.918,169.822,119.437,169.822,126.25z"/>
	<path class="st0" d="M285.271,164.742c6.809,0,12.312-5.486,12.312-12.275c0-6.822-5.503-12.333-12.312-12.333
		c-6.805,0-12.304,5.512-12.304,12.333C272.967,159.256,278.466,164.742,285.271,164.742z"/>
	<path class="st0" d="M318.386,139.949c6.808,0,12.304-5.488,12.304-12.276c0-6.813-5.496-12.333-12.304-12.333
		c-6.809,0-12.308,5.52-12.308,12.333C306.077,134.462,311.577,139.949,318.386,139.949z"/>
	<path class="st0" d="M173.592,97.366c6.804,0,12.332-5.486,12.332-12.276c0-6.812-5.528-12.332-12.332-12.332
		c-6.788,0-12.288,5.52-12.288,12.332C161.304,91.88,166.804,97.366,173.592,97.366z"/>
	<path class="st0" d="M324.063,91.694c6.805,0,12.308-5.488,12.308-12.276c0-6.82-5.503-12.332-12.308-12.332
		c-6.812,0-12.312,5.512-12.312,12.332C311.751,86.206,317.25,91.694,324.063,91.694z"/>
	<polygon class="st0" points="170.42,413.324 203.219,328.014 147.448,387.075 	"/>
	<polygon class="st0" points="352.542,413.324 375.51,387.075 319.719,328.014 	"/>
</g>
</symbol>
<symbol id="icon-adventures" fill="inherit" xmlns="http://www.w3.org/2000/svg" xmlns:xlink="http://www.w3.org/1999/xlink" 
	 viewBox="0 0 30 30" enable-background="new 0 0 32 32" xml:space="preserve">
<circle fill="none" stroke="#000000" stroke-width="2" stroke-miterlimit="10" cx="16" cy="16" r="12"/>
<line fill="none" stroke="#000000" stroke-width="2" stroke-miterlimit="10" x1="16" y1="6" x2="16" y2="4"/>
<line fill="none" stroke="#000000" stroke-width="2" stroke-miterlimit="10" x1="16" y1="28" x2="16" y2="26"/>
<line fill="none" stroke="#000000" stroke-width="2" stroke-miterlimit="10" x1="26" y1="16" x2="28" y2="16"/>
<line fill="none" stroke="#000000" stroke-width="2" stroke-miterlimit="10" x1="4" y1="16" x2="6" y2="16"/>
<g>
	<path d="M13.6,13.6l-3.7,8.5l8.5-3.7l3.7-8.5L13.6,13.6z M16,17.5c-0.8,0-1.5-0.7-1.5-1.5c0-0.8,0.7-1.5,1.5-1.5
		c0.8,0,1.5,0.7,1.5,1.5C17.5,16.8,16.8,17.5,16,17.5z"/>
</g>
</symbol>
<symbol id="icon-fantastic" fill="inherit" xmlns="http://www.w3.org/2000/svg" xmlns:xlink="http://www.w3.org/1999/xlink" 
	 viewBox="0 0 30 30" xml:space="preserve">
<g>
	<g>
		<g>
			<path d="M509.051,12.6c-0.523-5.096-4.552-9.125-9.649-9.649c-3.955-0.405-97.571-9.75-159.711,7.073
				c-0.002,0-0.004,0.001-0.007,0.001c-19.392,5.247-34.113,12.7-43.766,22.153c-37.728,30.969-77.654,74.49-112.163,121.418
				c-54.979-8.142-111,7.438-151.058,47.495c-11.651,11.651-21.496,24.933-29.26,39.477c-2.121,3.972-1.557,8.842,1.415,12.225
				c2.971,3.381,7.725,4.569,11.94,2.978c28.725-10.851,66.919-4.869,105.09,14.363c0.058,0.062,0.112,0.127,0.173,0.187
				c10.591,10.591,21.181,21.18,31.772,31.77c-32.675,37.338-41.09,82.954-41.454,85.002c-0.617,3.476,0.503,7.036,2.999,9.532
				c2.045,2.045,4.801,3.166,7.643,3.166c0.628,0,1.26-0.055,1.889-0.166c2.048-0.363,47.668-8.78,85.005-41.457
				c10.59,10.59,21.179,21.179,31.769,31.767c0.055,0.055,0.115,0.1,0.171,0.155c19.244,38.182,25.23,76.386,14.377,105.118
				c-1.591,4.212-0.404,8.968,2.978,11.94c2.018,1.773,4.566,2.689,7.136,2.689c1.738,0,3.487-0.418,5.089-1.274
				c14.544-7.764,27.826-17.609,39.477-29.26c34.228-34.227,51.806-80.924,49.501-131.49c-0.301-6.595-0.94-13.151-1.903-19.65
				c46.882-34.484,90.358-74.375,121.306-112.08c9.457-9.654,16.909-24.379,22.154-43.778c0-0.001,0-0.002,0.001-0.003
				C518.799,110.16,509.456,16.554,509.051,12.6z M141.645,217.34c-6.008,10.259-11.567,20.426-16.604,30.35
				c-6.504-3.029-13.053-5.741-19.63-8.088c-20.125-7.183-39.401-10.787-57.208-10.787c-3.987,0-7.902,0.181-11.735,0.543
				c3.571-4.544,7.416-8.878,11.517-12.979c32.368-32.368,76.745-46.397,121.485-42.699c-9.939,14.445-19.289,29.082-27.823,43.661
				L141.645,217.34z M142.799,260.491c3.274-6.564,6.799-13.256,10.549-20.025l33.323,33.323
				c-5.885,3.843-11.772,8.189-17.48,13.091C160.393,278.083,151.597,269.288,142.799,260.491z M201.998,335.989
				c-20.808,20.807-46.822,32.08-63.637,37.65c5.571-16.819,16.843-42.83,37.65-63.637c20.807-20.807,46.821-32.079,63.637-37.65
				C234.077,289.171,222.805,315.182,201.998,335.989z M251.511,369.194c-8.796-8.794-17.593-17.591-26.389-26.387
				c4.902-5.707,9.247-11.593,13.089-17.478l33.318,33.318C264.765,362.396,258.074,365.921,251.511,369.194z M295.622,464.016
				c-4.101,4.101-8.435,7.946-12.979,11.517c1.978-20.947-1.454-44.313-10.247-68.943c-2.349-6.578-5.061-13.13-8.091-19.635
				c9.926-5.035,20.089-10.596,30.339-16.605c0.001,0,0.002-0.001,0.002-0.001c14.607-8.549,29.272-17.917,43.745-27.875
				c0.175,2.102,0.326,4.209,0.423,6.322C340.84,393.219,325.501,434.137,295.622,464.016z M469.958,193.808
				c-0.118-0.13-0.228-0.266-0.353-0.391l-29.897-29.897c-4.221-4.221-11.065-4.221-15.287,0c-4.221,4.221-4.221,11.065,0,15.286
				l29.897,29.897c0.639,0.639,1.344,1.169,2.084,1.615c-41.794,48.514-103.757,99.884-165.512,137.118l-41.584-41.584
				c12.25-24.785,16.085-45.582,16.327-46.95c0.617-3.476-0.503-7.036-2.999-9.532c-2.498-2.497-6.057-3.616-9.532-3
				c-1.368,0.243-22.165,4.077-46.95,16.327l-41.593-41.593c37.191-61.668,88.466-123.539,136.909-165.327
				c0.223,0.27,0.457,0.533,0.709,0.785l63.519,63.519c2.111,2.111,4.877,3.166,7.643,3.166c2.766,0,5.533-1.056,7.643-3.166
				c4.221-4.221,4.221-11.065,0-15.286l-62.771-62.771c5.569-3.563,12.642-6.706,21.179-9.395l69.995,69.995l69.979,69.979
				C476.673,181.151,473.526,188.235,469.958,193.808z M485.191,147.856L364.139,26.804c45.772-7.881,102.569-4.745,124.166-3.104
				C489.949,45.293,493.089,102.062,485.191,147.856z"/>
			<path d="M394.713,133.812c-4.221,4.221-4.221,11.065,0,15.286l1.081,1.081c2.111,2.111,4.877,3.166,7.643,3.166
				s5.533-1.055,7.643-3.166c4.221-4.221,4.221-11.065,0-15.286l-1.081-1.081C405.778,129.59,398.934,129.59,394.713,133.812z"/>
			<path d="M320.269,132.282c-15.88,0-30.809,6.184-42.037,17.412c-23.179,23.179-23.179,60.895,0,84.074
				c11.228,11.228,26.158,17.412,42.037,17.412c15.88,0,30.809-6.184,42.037-17.412c11.229-11.228,17.412-26.158,17.412-42.037
				c0-15.879-6.184-30.809-17.412-42.037C351.078,138.466,336.149,132.282,320.269,132.282z M347.02,218.483
				c-7.146,7.146-16.646,11.08-26.751,11.08s-19.605-3.936-26.751-11.08c-14.75-14.75-14.75-38.751,0-53.501
				c7.145-7.146,16.646-11.08,26.751-11.08s19.605,3.934,26.751,11.08c7.145,7.146,11.08,16.646,11.08,26.751
				C358.101,201.837,354.165,211.337,347.02,218.483z"/>
			<path d="M10.809,420.282c2.766,0,5.533-1.055,7.643-3.166l74.471-74.471c4.221-4.221,4.221-11.065,0-15.286
				c-4.221-4.221-11.065-4.221-15.287,0L3.166,401.83c-4.221,4.221-4.221,11.065,0,15.286
				C5.277,419.226,8.043,420.282,10.809,420.282z"/>
			<path d="M169.355,419.076l-74.472,74.472c-4.221,4.221-4.221,11.065,0,15.286c2.111,2.111,4.877,3.166,7.643,3.166
				c2.766,0,5.533-1.056,7.643-3.166l74.472-74.472c4.221-4.221,4.221-11.065,0-15.286
				C180.421,414.855,173.577,414.855,169.355,419.076z"/>
			<path d="M95.031,416.969c-4.221-4.221-11.065-4.221-15.287,0L4.248,492.465c-4.221,4.221-4.221,11.065,0,15.286
				c2.111,2.111,4.877,3.166,7.643,3.166s5.533-1.055,7.643-3.166l75.495-75.496C99.251,428.035,99.251,421.19,95.031,416.969z"/>
		</g>
	</g>
</g>
</symbol>
<symbol id="icon-family" fill="inherit" xmlns="http://www.w3.org/2000/svg" xmlns:xlink="http://www.w3.org/1999/xlink" 
	 viewBox="0 0 30 30" xml:space="preserve">
<g>
	<path d="M143.407,85.75c1.563,0.924,3.316,1.387,5.07,1.387s3.508-0.463,5.071-1.387c6.659-3.938,39.876-24.759,39.876-48.178
		c0-15.342-12.318-27.823-27.459-27.823c-6.64,0-12.737,2.4-17.489,6.392c-4.754-3.991-10.852-6.392-17.493-6.392
		c-15.142,0-27.46,12.481-27.46,27.823C103.523,60.992,136.747,81.815,143.407,85.75z M130.983,29.681
		c4.151,0,7.528,3.54,7.528,7.892c0,5.504,4.462,9.966,9.966,9.966s9.966-4.462,9.966-9.966c0-4.352,3.374-7.892,7.522-7.892
		c4.15,0,7.527,3.54,7.527,7.892c0,7.482-13.259,19.785-25.017,27.783c-11.76-7.998-25.021-20.302-25.021-27.783
		C123.455,33.221,126.832,29.681,130.983,29.681z"/>
	<path d="M296.978,251.93c-0.295-39.39-26.576-72.66-62.399-83.28c16.104-8.756,27.063-25.855,27.063-45.473
		c0-28.507-23.138-51.698-51.578-51.698c-28.44,0-51.579,23.191-51.579,51.698c0,19.621,10.964,36.723,27.073,45.478
		c-2.687,0.799-5.318,1.729-7.892,2.774c-6.483-9.171-17.149-15.174-29.193-15.174c-12.039,0-22.699,5.999-29.184,15.163
		c-2.565-1.042-5.189-1.968-7.868-2.764c16.109-8.755,27.073-25.856,27.073-45.478c0-28.507-23.138-51.698-51.579-51.698
		c-28.44,0-51.578,23.191-51.578,51.698c0,19.617,10.96,36.717,27.064,45.474C26.375,179.33,0,212.922,0,252.605
		c0,5.504,4.462,9.966,9.966,9.966h82.716c-1.226,4.701-1.883,9.632-1.883,14.714c0,5.504,4.462,9.966,9.966,9.966h95.418
		c0.007,0.001,0.015,0.001,0.02,0c5.505,0,9.966-4.462,9.966-9.966c0-0.234-0.008-0.467-0.023-0.697
		c-0.057-4.837-0.711-9.53-1.88-14.017h82.75c0.007,0,0.015,0,0.02,0c5.505,0,9.966-4.462,9.966-9.966
		C297,252.378,296.993,252.152,296.978,251.93z M210.064,91.41c17.449,0,31.646,14.251,31.646,31.767
		c0,17.515-14.197,31.764-31.646,31.764c-17.45,0-31.647-14.249-31.647-31.764C178.416,105.661,192.613,91.41,210.064,91.41z
		 M148.473,176.187c8.73,0,15.834,7.136,15.834,15.908c0,8.77-7.104,15.905-15.834,15.905c-8.73,0-15.831-7.135-15.831-15.905
		C132.642,183.322,139.743,176.187,148.473,176.187z M86.915,91.41c17.45,0,31.647,14.251,31.647,31.767
		c0,17.515-14.197,31.764-31.647,31.764c-17.449,0-31.646-14.249-31.646-31.764C55.269,105.661,69.466,91.41,86.915,91.41z
		 M20.658,242.639c4.792-32.551,32.679-57.606,66.257-57.606c9.158,0,17.887,1.869,25.841,5.243
		c-0.03,0.603-0.046,1.209-0.046,1.819c0,12.795,6.731,24.038,16.827,30.38c-10.986,3.855-20.474,10.952-27.307,20.164H20.658z
		 M112.039,267.318c4.35-16.196,19.035-28.142,36.434-28.142c17.399,0,32.086,11.945,36.436,28.142H112.039z M194.708,242.639
		c-6.832-9.209-16.313-16.311-27.296-20.165c10.096-6.342,16.827-17.585,16.827-30.379c0-0.607-0.017-1.208-0.047-1.807
		c7.963-3.382,16.702-5.256,25.871-5.256c33.578,0,61.467,25.056,66.259,57.606H194.708z"/>
</g>
</symbol>
<symbol id="icon-comedy" fill="inherit" xmlns="http://www.w3.org/2000/svg" xmlns:xlink="http://www.w3.org/1999/xlink" 
	 viewBox="0 0 30 30" xml:space="preserve">
<g>
	<path d="M249.001,0.455c-4.369,0-8.859,0.758-13.35,2.252c-0.209,0.068-0.426,0.149-0.629,0.233
		c-0.387,0.155-39.152,15.603-89.872,15.603c-29.764,0-57.743-5.248-83.161-15.6C57.194,0.99,52.337,0,47.553,0
		C28.422,0,13.996,15.845,13.996,36.856v120.418C13.996,233.014,75.591,297,148.499,297c72.909,0,134.505-63.986,134.505-139.726
		V36.856C283.004,15.765,268.703,0.455,249.001,0.455z M262.152,157.274c0,64.437-52.046,118.874-113.653,118.874
		c-61.605,0-113.651-54.438-113.651-118.874V36.856c0-9.573,5.105-16.005,12.705-16.005c2.075,0,4.286,0.472,6.572,1.403
		c27.927,11.373,58.553,17.14,91.025,17.14c52.892,0,92.842-15.204,97.355-16.992c2.266-0.726,4.449-1.096,6.496-1.096
		c8.111,0,13.151,5.959,13.151,15.55V157.274z"/>
	<path d="M204.886,199.869c-3.442-3.063-8.714-2.754-11.774,0.689c-9.429,10.6-26.522,17.186-44.611,17.186
		c-18.089,0-35.183-6.586-44.611-17.186c-3.06-3.442-8.332-3.75-11.774-0.689c-3.442,3.061-3.751,8.333-0.689,11.775
		c12.687,14.265,34.022,22.781,57.075,22.781c23.053,0,44.39-8.517,57.075-22.781C208.637,208.202,208.328,202.93,204.886,199.869z"
		/>
	<path d="M239.494,121.283c-12.725-6.362-23.531-8.536-32.362-8.536c-18.463,0-28.256,9.506-28.848,10.099
		c-3.313,3.202-3.374,8.336-0.168,11.67c3.205,3.333,8.505,3.434,11.816,0.236c0.559-0.521,14.049-12.573,42.101,1.451
		c4.122,2.059,9.131,0.391,11.19-3.729C245.283,128.354,243.613,123.344,239.494,121.283z"/>
	<path d="M108.319,133.752c3.312,3.197,8.611,3.097,11.816-0.236c3.206-3.334,3.145-8.468-0.168-11.67
		c-0.592-0.593-10.385-10.099-28.848-10.099c-8.831,0-19.637,2.174-32.362,8.536c-4.119,2.061-5.789,7.07-3.729,11.19
		c2.06,4.12,7.068,5.788,11.19,3.729C94.27,121.179,107.761,133.23,108.319,133.752z"/>
</g>
</symbol>
<symbol id="icon-concert" fill="inherit" xmlns="http://www.w3.org/2000/svg" xmlns:xlink="http://www.w3.org/1999/xlink" 
	 viewBox="0 0 30 30" xml:space="preserve">
<g>
	<g>
		<path d="M396.727,262.864c-25.77,0-46.737,20.966-46.737,46.737v85.061l-23.796-66.129l19.138-66.2
			c3.05-10.55,0.452-21.689-6.954-29.8c-7.404-8.109-18.265-11.707-29.048-9.628l-34.486,6.659V122.518l15.463-87.441
			c1.542-8.72-0.838-17.613-6.53-24.4S269.745,0,260.891,0h-41.479c-8.856,0-17.199,3.891-22.889,10.678
			c-5.69,6.787-8.071,15.678-6.53,24.4l15.463,87.441v88.79l-42.258-24.924c-12.624-7.447-28.067-6.206-39.342,3.161
			c-11.274,9.368-15.323,24.321-10.316,38.097l36.77,101.154L73.268,460.353c-7.1,12.122-6.146,27.143,2.429,38.27
			C82.316,507.211,92.336,512,102.787,512c3.087,0,6.211-0.418,9.298-1.279l130.647-36.476l87.751,33.656
			c12.681,4.863,26.581,1.98,36.282-7.521c6.957-6.814,10.534-15.862,10.315-25.147c0.072-0.567,0.122-1.143,0.122-1.729V309.599
			c0-10.766,8.76-19.525,19.525-19.525s19.525,8.758,19.525,19.525v64.615c0,7.515,6.093,13.606,13.606,13.606
			c7.513,0,13.606-6.091,13.606-13.606v-64.615C443.462,283.829,422.496,262.864,396.727,262.864z M217.37,28.165
			c0.365-0.434,1.012-0.952,2.04-0.952h41.479c1.027,0,1.675,0.517,2.04,0.952c0.366,0.434,0.762,1.163,0.582,2.174l-13.684,77.376
			H230.47l-13.684-77.376C216.61,29.328,217.006,28.599,217.37,28.165z M247.633,134.927v111.118v78.687h-14.967V235.13V134.927
			H247.633z M347.723,480.939c-0.976,0.956-3.661,3.027-7.496,1.554l-91.95-35.267c-2.728-1.045-5.719-1.185-8.532-0.401
			L104.766,484.51c-4.163,1.158-6.64-1.362-7.515-2.499c-0.878-1.137-2.682-4.185-0.502-7.906l29.159-49.793h110.819
			c7.513,0,13.606-6.091,13.606-13.606c0-7.515-6.093-13.606-13.606-13.606h-94.883l35.177-60.068
			c2.046-3.494,2.43-7.717,1.048-11.524l-38.956-107.161c-1.537-4.229,0.978-6.913,2.131-7.871c0.762-0.633,2.373-1.713,4.498-1.713
			c1.091,0,2.316,0.284,3.63,1.06l56.081,33.078v83.476h-1.361c-7.513,0-13.606,6.091-13.606,13.606
			c0,7.515,6.093,13.606,13.606,13.606h72.112c7.513,0,13.606-6.091,13.606-13.606c0-7.515-6.093-13.606-13.606-13.606h-1.361
			v-69.101l39.644-7.653c1.961-0.376,3.218,0.625,3.795,1.257s1.461,1.978,0.908,3.893l-20.364,70.439
			c-0.796,2.754-0.703,5.689,0.268,8.385l50.336,139.883C350.821,477.34,348.7,479.982,347.723,480.939z"/>
	</g>
</g>
<g>
	<g>
		<path d="M290.878,408.047c-0.162-0.871-0.434-1.729-0.774-2.544c-0.34-0.816-0.763-1.606-1.252-2.354
			c-0.49-0.735-1.061-1.429-1.687-2.055c-3.157-3.17-7.864-4.612-12.274-3.728c-0.871,0.177-1.728,0.435-2.558,0.776
			c-0.816,0.34-1.606,0.762-2.34,1.252c-0.748,0.503-1.442,1.061-2.068,1.701c-0.627,0.626-1.199,1.32-1.701,2.055
			c-0.478,0.748-0.898,1.537-1.238,2.354c-0.34,0.816-0.612,1.674-0.776,2.544c-0.177,0.884-0.272,1.769-0.272,2.653
			c0,0.898,0.095,1.782,0.272,2.667c0.163,0.871,0.435,1.728,0.776,2.544c0.34,0.816,0.762,1.606,1.238,2.354
			c0.502,0.735,1.074,1.442,1.701,2.068c0.626,0.626,1.32,1.197,2.068,1.687c0.735,0.49,1.524,0.912,2.34,1.252
			c0.83,0.34,1.687,0.599,2.558,0.776c0.872,0.177,1.77,0.258,2.653,0.258c3.578,0,7.089-1.442,9.62-3.973
			c2.531-2.544,3.987-6.041,3.987-9.633C291.15,409.816,291.057,408.931,290.878,408.047z"/>
	</g>
</g>
</symbol>
<symbol id="icon-military" fill="inherit" xmlns="http://www.w3.org/2000/svg" xmlns:xlink="http://www.w3.org/1999/xlink" 
	 viewBox="0 0 30 30" xml:space="preserve">
<g>
	<g>
		<g>
			<path d="M224.033,255.998h-42.667c-11.782,0-21.333,9.551-21.333,21.333c0,11.782,9.551,21.333,21.333,21.333h42.667
				c11.782,0,21.333-9.551,21.333-21.333C245.367,265.549,235.815,255.998,224.033,255.998z"/>
			<path d="M224.033,319.998h-42.667c-11.782,0-21.333,9.551-21.333,21.333c0,11.782,9.551,21.333,21.333,21.333h42.667
				c11.782,0,21.333-9.551,21.333-21.333C245.367,329.549,235.815,319.998,224.033,319.998z"/>
			<path d="M224.033,383.998h-42.667c-11.782,0-21.333,9.551-21.333,21.333c0,11.782,9.551,21.333,21.333,21.333h42.667
				c11.782,0,21.333-9.551,21.333-21.333C245.367,393.549,235.815,383.998,224.033,383.998z"/>
			<path d="M454.925,397.736l-82.047-196.925l-1.265-2.544c-13.726-23.534-41.581-31.684-74.28-28.064L431.118,36.418
				c8.331-8.331,8.331-21.839,0-30.17c-8.331-8.331-21.839-8.331-30.17,0L245.367,161.83L89.785,6.248
				c-8.331-8.331-21.839-8.331-30.17,0c-8.331,8.331-8.331,21.839,0,30.17l134.372,134.372
				c-54.552,1.791-97.954,23.069-97.954,63.874v213.333c0,42.183,48.217,63.694,106.556,63.997
				c26.571,0.138,50.991-4.167,69.752-12.917c23.678,19.172,65.773,16.404,108.637-1.194
				C435.211,475.618,471.463,437.416,454.925,397.736z M138.7,447.998V234.665c0-9.9,26.263-21.526,63.889-21.331
				c18.236,0.095,33.915,2.977,45.209,6.972c0.854,0.49,1.75,0.943,2.709,1.335c10.877,4.441,15.556,8.906,16.129,12.309
				c0.035,0.24,0.064,0.479,0.064,0.715v213.327c0,0.017-0.003,0.034-0.004,0.051c-0.002,0.214-0.027,0.429-0.053,0.644
				c-0.236,1.526-1.294,3.211-3.911,5.585c-0.834,0.757-1.598,1.57-2.289,2.429c-9.917,6.937-30.902,12.767-57.634,12.628
				C165.401,469.135,138.7,457.222,138.7,447.998z M364.774,458.414c-25.445,10.447-47.978,12.816-59.542,9.956
				c2.69-6.142,4.135-12.932,4.135-20.372v-0.006V234.665v-0.006c0-0.003,0-0.007,0-0.01c0-0.944-0.033-1.875-0.081-2.798
				c-0.006-0.114-0.012-0.228-0.018-0.341c-0.405-6.899-2.137-13.217-5.021-18.95c14.932-1.281,26.011,1.143,29.965,6.386
				l81.33,195.204C419.352,423.291,399.583,444.123,364.774,458.414z"/>
		</g>
	</g>
</g>
</symbol>
</svg>